<?xml version="1.0" standalone="no"?>
<!DOCTYPE svg PUBLIC "-//W3C//DTD SVG 20010904//EN"
 "http://www.w3.org/TR/2001/REC-SVG-20010904/DTD/svg10.dtd">
<svg version="1.0" xmlns="http://www.w3.org/2000/svg"
 width="500.000000pt" height="500.000000pt" viewBox="0 0 500.000000 500.000000"
 preserveAspectRatio="xMidYMid meet">
<metadata>
Created by potrace 1.11, written by Peter Selinger 2001-2013
</metadata>
<g transform="translate(0.000000,500.000000) scale(0.100000,-0.100000)"
fill="#000000" stroke="none">
<path d="M2468 4866 c-1 -2 -61 -6 -133 -10 -169 -9 -200 -13 -325 -37 -462
-92 -886 -322 -1225 -664 -106 -108 -124 -129 -208 -243 -261 -357 -409 -745
-453 -1187 -13 -129 -6 -449 11 -515 2 -8 6 -35 9 -60 46 -356 232 -783 474
-1085 86 -107 100 -123 192 -215 87 -86 106 -103 195 -175 256 -206 645 -390
950 -450 237 -46 324 -54 550 -50 110 2 229 9 265 15 36 6 79 13 95 16 17 2
41 7 55 9 14 3 34 7 45 9 41 8 151 37 175 47 14 5 34 11 45 13 20 4 87 28 140
51 17 7 55 23 85 36 87 37 246 125 355 196 325 213 596 519 786 886 83 161
183 441 203 569 3 21 10 57 15 80 6 24 12 68 16 98 3 30 8 78 12 105 16 129 5
436 -20 575 -3 14 -8 45 -12 70 -3 25 -20 97 -37 160 -123 473 -406 915 -779
1216 -78 63 -215 164 -223 164 -3 0 -24 13 -48 29 -44 29 -230 125 -303 156
-53 22 -226 86 -245 90 -8 2 -49 12 -90 24 -150 40 -260 57 -440 67 -58 3
-110 7 -117 9 -6 2 -13 2 -15 1z"/>
</g>
</svg>
